<?xml version="1.0" encoding="UTF-8"?>
<svg id="Calque_1" data-name="Calque 1" xmlns="http://www.w3.org/2000/svg" viewBox="0 0 103.14 78.19">
  <defs>
    <style>
      .cls-1 {
        fill: none;
        stroke: #b62630;
        stroke-miterlimit: 10;
      }
    </style>
  </defs>
  <g id="Faucon">
    <path class="cls-1" d="m41.2,16.58h-22.23c-4.09,0-7.41-3.32-7.41-7.41h0"/>
    <path class="cls-1" d="m43.84,23.99h-13.57c-4.09,0-7.41-3.32-7.41-7.41h0"/>
    <path class="cls-1" d="m38.19,9.17H7.91C3.82,9.17.5,5.85.5,1.76V.5h32.85c6.86,0,16.28,19.56,22.41,34.27"/>
    <path class="cls-1" d="m61.94,16.58h22.23c4.09,0,7.41-3.32,7.41-7.41h0"/>
    <path class="cls-1" d="m59.3,23.99h13.57c4.09,0,7.41-3.32,7.41-7.41h0"/>
    <path class="cls-1" d="m47.38,34.77C53.5,20.06,62.93.5,69.79.5h32.85v1.26c0,4.09-3.32,7.41-7.41,7.41h-30.28"/>
  </g>
  <g id="Map">
    <polygon class="cls-1" points="55.78 34.78 67.35 26.32 67.35 61.23 51.1 77.48 34.92 61.3 34.92 25.68 47.36 34.78 41.2 50.75 51.57 61.3 61.94 50.75 55.78 34.78"/>
  </g>
</svg>